<svg width="90" height="18" viewBox="0 0 90 18" xmlns="http://www.w3.org/2000/svg">
<path style="fill: white;" clip-rule="evenodd" d="M13.1075 0C20.1826 0 25.8693 3.30838 25.8693 8.80108C25.8693 14.2938 20.5061 18 12.7618 18C5.6867 17.9981 0 14.6897 0 9.12948C0 3.56922 5.34099 0 13.1075 0ZM3.07444 8.93994C3.07444 13.9616 7.23594 16.9416 12.9929 16.9416C18.4023 16.9416 22.7949 14.2206 22.7949 9.05629C22.7949 3.89199 18.6093 1.0565 12.8524 1.0565C7.443 1.0565 3.07259 3.755 3.07259 8.94182L3.07444 8.93994ZM57.1037 0.54045L57.1053 0.540816C54.1455 5.32783 50.7698 10.6083 47.7879 15.0425C44.8281 10.49 41.7777 5.44391 39.1414 0.54045C38.4481 0.585488 37.9157 0.609883 37.4073 0.609883C36.8989 0.609883 36.3905 0.587364 35.6972 0.54045C39.5352 6.05567 43.5802 12.4379 46.8635 18H47.1409C47.8091 17.0066 48.4786 16.0091 49.1499 15.009L49.1506 15.008L49.1508 15.0077C52.3815 10.1946 55.6539 5.3193 59.0227 0.54045C58.8156 0.587364 58.4218 0.587364 58.0521 0.587364C57.6833 0.587364 57.3127 0.587364 57.1053 0.540816L57.1055 0.54045H57.1037ZM71.5739 17.4168C71.8784 17.3914 72.1861 17.3657 72.4777 17.3657C72.7633 17.3657 73.0565 17.3903 73.3529 17.4152C73.5612 17.4326 73.771 17.4502 73.9808 17.4595C73.8883 16.1459 73.7497 14.1268 73.7256 10.6776H81.4238C87.1105 10.6776 90 9.45788 90 5.60905C90 1.76022 87.1105 0.54045 81.4238 0.54045C80.743 0.54045 78.6933 0.569389 76.8705 0.595123C75.4111 0.615728 74.0972 0.634278 73.7478 0.634278C73.2169 0.634278 72.6353 0.608214 72.0643 0.582625C71.6909 0.565888 71.322 0.549355 70.9747 0.54045C70.9864 0.696322 70.9984 0.847904 71.0104 1.00026C71.1177 2.36297 71.2298 3.78745 71.2298 8.89491C71.2298 13.1841 71.0884 15.5541 70.9943 17.1297C70.9875 17.2436 70.9809 17.3535 70.9747 17.4595C71.1693 17.4505 71.3709 17.4337 71.5739 17.4168ZM73.7256 9.41096C73.7256 4.62385 73.7737 3.05129 73.8421 1.78461H81.4238C85.0306 1.78461 87.1567 2.76981 87.1567 5.60905C87.1567 8.44829 85.0306 9.41096 81.4238 9.41096H73.7256Z" fill="#3A3A3A"/>
</svg>
