<svg width="631" height="30" viewBox="0 0 631 30" xmlns="http://www.w3.org/2000/svg">
<path style="fill: white;"  d="M628.62 5.69001L629.01 5.61001V5.60001L628.35 2.49001C625.66 1.13001 621.07 9.76585e-06 615.35 9.76585e-06C610.92 9.76585e-06 601.42 0.82001 601.42 7.98001C601.42 14.1293 608.599 15.1031 615.319 16.0148C621.232 16.8169 626.79 17.5709 626.79 21.76C626.79 26.59 620.26 27.99 614.57 27.99C608.88 27.99 602.11 26.36 600.05 23.36L599.66 23.48L600.75 27.29C604.29 28.81 608.57 29.82 614.45 29.82C620.33 29.82 630.33 28.61 630.33 20.87C630.33 14.1052 622.606 13.0734 615.682 12.1484C610.057 11.397 604.96 10.7161 604.96 7.09001C604.96 4.84001 607.22 1.84001 615.82 1.84001C621.77 1.84001 626.36 3.20001 628.62 5.69001ZM43.54 14.6C43.54 5.50001 33.97 0.0100098 22.06 0.0100098C8.99 0.0100098 0 5.93001 0 15.15C0 24.37 9.57 29.86 21.47 29.85C34.51 29.85 43.54 23.7 43.54 14.6ZM21.88 28.11C12.19 28.11 5.18 23.17 5.18 14.84C5.18 6.24001 12.53 1.76001 21.64 1.76001C31.33 1.76001 38.38 6.46001 38.38 15.03C38.38 23.6 30.99 28.11 21.88 28.11ZM105.5 0.99001C104.88 0.99001 104.26 0.99001 103.91 0.91001H103.89C98.91 8.85001 93.23 17.6 88.21 24.96C83.23 17.41 78.1 9.04001 73.66 0.91001C72.49 0.99001 71.6 1.03001 70.74 1.03001C69.88 1.03001 69.03 0.99001 67.86 0.91001C74.32 10.05 81.13 20.64 86.66 29.86H87.13C88.361 28.0587 89.5944 26.249 90.8315 24.4339L90.8319 24.4333C96.1671 16.6052 101.569 8.67854 107.13 0.91001C106.78 0.99001 106.12 0.99001 105.5 0.99001ZM167.65 28.81C167.153 28.81 166.63 28.8541 166.113 28.8978C165.777 28.9261 165.443 28.9543 165.12 28.97L165.145 28.57C165.306 25.9558 165.55 22.0108 165.55 14.77C165.55 6.22234 165.361 3.89109 165.176 1.62L165.176 1.61523L165.176 1.61445V1.61432C165.157 1.38445 165.138 1.15514 165.12 0.92001C165.695 0.935545 166.304 0.963146 166.921 0.991099C167.894 1.03512 168.885 1.08001 169.79 1.08001C170.377 1.08001 172.588 1.04838 175.045 1.01325L175.045 1.01325C178.114 0.969366 181.566 0.92001 182.71 0.92001C192.28 0.92001 197.15 2.94001 197.15 9.33001C197.15 15.72 192.29 17.74 182.71 17.74H169.75C169.79 23.46 170.02 26.81 170.18 28.99C169.829 28.9737 169.481 28.9441 169.135 28.9148L169.134 28.9147C168.632 28.8721 168.136 28.83 167.65 28.83V28.81ZM169.95 2.97001C169.83 5.07001 169.75 7.68001 169.75 15.62H182.71C188.78 15.62 192.36 14.02 192.36 9.32001C192.36 4.62001 188.78 2.98001 182.71 2.98001H169.95V2.97001ZM261.71 28.96C255.33 19.39 250.43 11.45 245.02 2.15001H245.01C244.51 1.02001 244 0.90001 242.91 0.90001C242.696 0.90001 242.386 0.922035 242.032 0.947213C241.56 0.980805 241.009 1.02001 240.5 1.02001C240.09 1.02001 239.545 0.99001 239 0.96001C238.455 0.93001 237.91 0.90001 237.5 0.90001V1.29001C238.75 1.37001 239.57 1.57001 240.15 2.11001C234.62 10.59 227.62 20.79 221.82 28.96C222.17 28.88 222.87 28.84 223.57 28.84C224.27 28.84 224.93 28.88 225.32 28.96C226.92 26.28 228.71 23.36 230.54 20.44H251.4C252.733 22.8054 254.031 25.1708 255.328 27.5362L255.33 27.5393C255.59 28.0129 255.85 28.4864 256.11 28.96C257.32 28.88 258.13 28.84 258.91 28.84C259.69 28.84 260.5 28.88 261.71 28.96ZM231.86 18.34C235.05 13.35 238.32 8.33001 241.32 3.82001C244.47 8.73001 247.39 13.55 250.19 18.34H231.86ZM292.19 28.81C291.693 28.81 291.17 28.8541 290.653 28.8978C290.317 28.9261 289.983 28.9543 289.66 28.97L289.685 28.5702V28.5695C289.846 25.9554 290.09 22.0104 290.09 14.77C290.09 6.22194 289.901 3.89088 289.716 1.61968C289.697 1.38801 289.679 1.15697 289.66 0.92001C290.207 0.935199 290.798 0.961923 291.403 0.989232C292.39 1.03384 293.412 1.08001 294.33 1.08001C294.856 1.08001 296.491 1.05456 298.457 1.02397C301.421 0.977841 305.136 0.92001 306.94 0.92001C316.59 0.92001 321.38 2.83001 321.38 9.17001C321.38 14.15 318.42 16.41 312.51 17.15C313.83 18.08 314.69 19.29 315.47 20.61C315.825 21.2147 316.162 21.8371 316.496 22.4541C318.14 25.4901 319.714 28.3968 322.98 28.43C324.54 28.43 325.94 28.04 327.34 27.15L327.57 27.54C325.98 28.63 323.95 29.37 321.27 29.37C314.938 29.37 313.126 25.8576 311.467 22.6412C310.066 19.925 308.774 17.42 304.96 17.42H294.3C294.338 23.1036 294.552 26.3078 294.711 28.6873L294.73 28.98C294.379 28.9637 294.03 28.9341 293.685 28.9047C293.182 28.8621 292.686 28.82 292.2 28.82L292.19 28.81ZM294.49 2.97001C294.37 4.99001 294.3 7.56001 294.3 15.35H306.95C314.69 15.35 316.91 12.98 316.91 9.16001C316.91 5.34001 314.69 2.97001 306.95 2.97001H294.5H294.49ZM365.873 28.8978C366.39 28.8541 366.913 28.81 367.41 28.81H367.42C367.917 28.81 368.44 28.8541 368.957 28.8978C369.293 28.9261 369.627 28.9543 369.95 28.97L369.926 28.5857C369.765 25.9802 369.52 22.0336 369.52 14.77C369.52 7.72001 369.63 4.92001 369.79 2.86001H380.57C381.97 2.86001 383.1 3.17001 383.92 4.26001L384.31 4.18001L383.69 0.83001H383.22C382.9 0.91001 381.46 0.91001 380.18 0.91001H354.65C353.974 0.91001 353.403 0.886598 352.879 0.865104C352.434 0.846866 352.023 0.83001 351.61 0.83001H351.18L350.56 4.18001L350.95 4.26001C351.73 3.17001 352.9 2.86001 354.3 2.86001H365.04C365.19 4.92001 365.35 7.73001 365.35 14.77C365.35 21.5957 365.101 25.4926 364.934 28.1068L364.934 28.1198L364.929 28.197V28.1973C364.911 28.4681 364.895 28.7251 364.88 28.97C365.203 28.9543 365.537 28.9261 365.873 28.8978ZM412.91 0.0900098C414.97 1.76001 423.77 8.81001 431.43 14.29C434.202 16.2165 436.89 18.2014 439.237 19.934L439.237 19.9343L439.238 19.9347L439.24 19.9364L439.244 19.9395C440.78 21.0737 442.169 22.0996 443.34 22.93C443.354 21.5906 443.374 20.2941 443.392 19.0221V19.0213V19.0205L443.393 19.001C443.427 16.7003 443.46 14.4796 443.46 12.23C443.46 8.73001 443.38 5.11001 443.19 0.91001C443.58 0.99001 444.12 1.03001 444.67 1.03001C445.22 1.03001 445.76 0.99001 446.15 0.91001C445.84 5.70001 445.72 10.6 445.72 15.81C445.72 20.21 445.8 24.88 445.99 29.86H445.52C445.143 29.5669 444.577 29.1224 443.867 28.5646C440.702 26.0776 434.671 21.3384 429.68 17.72C425.699 14.9484 421.904 12.1243 418.811 9.82211L418.81 9.82173L418.808 9.82032L418.805 9.81818L418.804 9.81697C417.424 8.79037 416.184 7.86772 415.13 7.10001C415.05 9.55001 415.01 12 415.01 14.45C415.01 19.24 415.17 24.02 415.44 28.97C415.01 28.89 414.51 28.85 413.96 28.85C413.41 28.85 412.87 28.89 412.48 28.97C412.64 25.74 412.71 21.97 412.71 17.96C412.71 12.08 412.55 5.78001 412.36 0.0200098H412.9V0.10001L412.91 0.0900098ZM507.43 4.01001L506.89 1.29001H506.88C506.81 1.02001 506.65 0.90001 506.34 0.90001C501.82 0.90001 498.154 0.956762 495.189 1.00267C493.176 1.03384 491.486 1.06001 490.07 1.06001C487.702 1.06001 484.925 1.01366 482.247 0.968969C480.616 0.941752 479.022 0.91515 477.58 0.90001C477.599 1.13704 477.617 1.36815 477.636 1.59988V1.59993C477.821 3.87104 478.01 6.20225 478.01 14.75C478.01 21.9906 477.766 25.9356 477.605 28.5498L477.58 28.95C478.976 28.9349 480.526 28.9084 482.113 28.8813L482.114 28.8813L482.114 28.8813C484.734 28.8365 487.456 28.79 489.76 28.79C491.443 28.79 493.349 28.8194 495.527 28.8529C498.435 28.8977 501.828 28.95 505.83 28.95C506.49 28.95 506.65 28.91 506.92 28.33L508.4 25.22L508.05 25.06C506.49 26.69 504.27 26.85 500.42 26.85H482.56C482.546 25.1253 482.497 23.3818 482.448 21.6328C482.389 19.5587 482.33 17.477 482.33 15.41H494.71C496.42 15.41 501.01 15.45 502.45 15.84C502.33 15.26 502.33 14.87 502.33 14.4C502.33 13.89 502.33 13.46 502.45 12.92C501.01 13.27 496.42 13.35 494.71 13.35H482.33C482.33 11.4342 482.39 9.47754 482.449 7.52582V7.52553V7.52525V7.52513C482.496 5.99302 482.542 4.46395 482.56 2.96001H501.63C503.62 2.96001 506.46 3.16001 507.08 4.09001L507.43 4.01001ZM539.93 28.81C539.433 28.81 538.91 28.8541 538.393 28.8978C538.057 28.9261 537.723 28.9543 537.4 28.97L537.425 28.5691C537.586 25.9549 537.83 22.01 537.83 14.77C537.83 6.22217 537.641 3.891 537.456 1.61987V1.61968L537.453 1.57763C537.435 1.36003 537.417 1.14263 537.4 0.92001C537.947 0.935199 538.538 0.961923 539.143 0.989232C540.13 1.03384 541.152 1.08001 542.07 1.08001C542.596 1.08001 544.231 1.05456 546.197 1.02397C549.161 0.977841 552.876 0.92001 554.68 0.92001C564.33 0.92001 569.12 2.83001 569.12 9.17001C569.12 14.15 566.16 16.41 560.25 17.15C561.57 18.08 562.43 19.29 563.21 20.61C563.565 21.2147 563.902 21.8371 564.236 22.4541C565.88 25.4901 567.454 28.3968 570.72 28.43C572.28 28.43 573.68 28.04 575.08 27.15L575.31 27.54C573.72 28.63 571.69 29.37 569.01 29.37C562.678 29.37 560.866 25.8576 559.207 22.6412C557.806 19.925 556.514 17.42 552.7 17.42H542.04C542.078 23.1017 542.292 26.3056 542.45 28.6848V28.686L542.47 28.98C542.119 28.9637 541.77 28.9341 541.424 28.9047C540.922 28.8621 540.426 28.82 539.94 28.82L539.93 28.81ZM542.23 2.97001C542.11 4.99001 542.04 7.56001 542.04 15.35H554.69C562.43 15.35 564.65 12.98 564.65 9.16001C564.65 5.34001 562.43 2.97001 554.69 2.97001H542.24H542.23Z" />
</svg>
