<svg width="110" height="110" viewBox="0 0 110 110" fill="none" xmlns="http://www.w3.org/2000/svg">
<g id="element / scroll">
<rect id="element / bg" width="110" height="110" rx="55" fill="white"/>
<path id="element / txt" fill-rule="evenodd" clip-rule="evenodd" d="M44.0038 24.4545L41.7571 15.3111L40.3978 15.067L43.985 14.2034L42.6445 15.1046L44.4381 22.408H44.5136L46.7414 15.9682L46.3072 14.2222L44.9478 13.9781L48.5539 13.0957L47.2134 13.9969L49.007 21.3003H49.0636L51.9145 12.8704L50.4985 12.6263L53.3305 11.9316L52.2543 12.7953L48.5916 23.3468L46.8925 16.4001L44.0416 24.4357L44.0038 24.4545ZM34.5068 17.9209C31.8637 19.5167 31.0896 23.5533 32.6944 26.1443H32.7133C33.8649 28.0405 36.0928 28.6413 37.8486 27.5712C40.3974 26.0128 41.0204 21.9387 39.4534 19.3853C38.3017 17.5078 36.1872 16.8882 34.5068 17.9209ZM38.4716 19.6482C39.9065 21.9762 40.1708 25.8439 37.7542 27.3083H37.7731C36.2249 28.2658 34.6768 27.4585 33.7328 25.919C32.2413 23.5158 32.0713 19.7233 34.6012 18.1837C36.0739 17.2825 37.5276 18.1086 38.4716 19.6482ZM70.7381 24.2479C70.7758 24.8487 70.9835 25.4308 71.3611 25.9752L71.3989 25.9377C71.7765 26.4822 72.3051 26.9515 72.9659 27.3646C73.9288 27.9278 74.7784 28.1531 75.5336 28.0029C76.2888 27.8527 76.874 27.4209 77.3083 26.7262C77.6292 26.2005 77.7614 25.6936 77.6859 25.2242C77.6103 24.7549 77.4215 24.323 77.1195 23.9288C76.8174 23.5345 76.3832 23.0463 75.7979 22.4831C75.4014 22.0888 75.0804 21.7697 74.8916 21.5256C74.7028 21.2815 74.5707 21.0187 74.4952 20.737C74.4196 20.4554 74.4952 20.155 74.684 19.8358C74.9105 19.4416 75.2504 19.2163 75.6468 19.1975C76.0433 19.1787 76.5342 19.3289 77.0817 19.6669C77.7047 20.0611 78.1012 20.4742 78.2523 20.9436C78.4033 21.4129 78.3467 21.9386 78.0823 22.5394L79.1396 23.1778C79.5738 22.3329 79.6682 21.5068 79.385 20.7558C79.1018 20.0048 78.5166 19.3289 77.6103 18.7844C76.7607 18.2775 75.9489 18.0522 75.2504 18.1461C74.5518 18.24 73.9854 18.5967 73.5889 19.2538C73.2868 19.742 73.1736 20.2113 73.2491 20.6432C73.3246 21.075 73.4945 21.488 73.7588 21.8448C74.0232 22.2015 74.3819 22.6145 74.8539 23.0839C74.8888 23.1186 74.9185 23.1508 74.945 23.1794C74.9902 23.2282 75.0259 23.2668 75.0616 23.2904C75.5524 23.7786 75.8923 24.1541 76.1 24.4169C76.3076 24.6798 76.4209 24.9426 76.4587 25.2242C76.4964 25.5059 76.402 25.825 76.1944 26.163C75.9112 26.6136 75.5713 26.8952 75.1182 26.9703C74.6651 27.0454 74.1176 26.8952 73.4379 26.4822C71.9464 25.581 71.5499 24.4357 72.2107 23.0463L71.1534 22.408C70.8325 23.0276 70.7003 23.6284 70.7381 24.2479ZM78.2336 28.078C77.9692 28.8478 77.9126 29.6176 78.0636 30.3874L78.007 30.4061C78.158 31.1759 78.5356 31.8706 79.1398 32.4714C79.6684 33.0158 80.2537 33.3726 80.8767 33.5791C81.4998 33.7668 82.1228 33.8232 82.7647 33.673C83.4066 33.5228 83.9919 33.2411 84.5394 32.8093L83.671 31.9269C83.1423 32.3775 82.557 32.6216 81.8774 32.6403C81.1977 32.6779 80.5558 32.3587 79.9139 31.7204C79.423 31.2134 79.1398 30.669 79.0643 30.087C79.0076 29.5049 79.102 28.9229 79.3663 28.3597C79.6118 27.7964 79.9894 27.2895 80.4803 26.8013C80.9711 26.3132 81.4998 25.9565 82.0662 25.7124C82.6326 25.4683 83.2178 25.3932 83.8031 25.4683C84.3884 25.5434 84.9359 25.8438 85.4268 26.3507C86.0498 26.9891 86.333 27.6087 86.3141 28.2282C86.2953 28.8478 86.1065 29.4111 85.7666 29.8992L86.6351 30.7816C87.0316 30.2935 87.277 29.7678 87.3903 29.167C87.5036 28.5662 87.4658 27.9654 87.277 27.3458C87.0882 26.7262 86.7295 26.1442 86.2009 25.6185C85.5967 24.999 84.917 24.6047 84.1618 24.4357C83.4066 24.248 82.6326 24.2855 81.8396 24.5484C81.0467 24.8112 80.3292 25.2618 79.6496 25.9189C78.9888 26.576 78.4979 27.3083 78.2336 28.078ZM82.5566 35.9072L90.7316 31.2135L92.6196 34.4803C93.1294 35.3627 93.3182 36.1513 93.186 36.8459C93.0539 37.5406 92.6007 38.1039 91.8455 38.5357C91.3358 38.8173 90.826 38.93 90.2974 38.8736C89.7688 38.8173 89.3345 38.592 88.9758 38.2165H88.9569C89.108 38.6483 89.0891 39.0426 88.9003 39.4181C88.7115 39.7936 88.466 40.1128 88.1451 40.3756C87.8241 40.6385 87.4277 40.9389 86.9557 41.258C86.7083 41.4271 86.5243 41.5585 86.3932 41.652L86.393 41.6521L86.3137 41.7086C86.1816 41.8025 86.1249 41.8964 86.1438 41.9715L86.0683 42.009L85.4264 40.9013C85.4264 40.9013 85.5208 40.7511 85.6341 40.6572C85.7662 40.5634 85.9361 40.4507 86.1816 40.3193C86.6536 40.0189 87.0501 39.756 87.3521 39.512C87.6542 39.2679 87.8619 38.9675 87.994 38.592C88.1262 38.2353 88.0507 37.8222 87.7864 37.3716L86.427 35.0435L83.1231 36.9398L82.5378 35.9072H82.5566ZM88.5416 36.508C88.9003 37.1276 89.3156 37.5218 89.7876 37.7096C90.2596 37.8973 90.7316 37.8222 91.2603 37.5406C91.7511 37.259 92.0343 36.9023 92.091 36.4517C92.1476 36.0011 91.9966 35.4566 91.619 34.7807L90.4296 32.753L87.3899 34.4991L88.5604 36.508H88.5416ZM88.6171 42.3282C87.994 42.8914 87.5598 43.5486 87.3332 44.3371C87.1067 45.1069 87.1067 45.9517 87.3332 46.8154C87.5598 47.679 87.9751 48.4113 88.5604 48.9745C89.1457 49.5377 89.8443 49.9132 90.675 50.101C91.5057 50.2887 92.3742 50.27 93.2804 50.0259C94.1866 49.7818 94.9607 49.3875 95.5837 48.8243C96.1879 48.2611 96.6221 47.5852 96.8487 46.8154C97.0752 46.0456 97.0941 45.2007 96.8487 44.3371C96.6032 43.4735 96.2068 42.7412 95.6215 42.178C95.0362 41.6147 94.3565 41.2392 93.5258 41.0515C92.6951 40.8637 91.8266 40.8825 90.9204 41.1266C90.0142 41.3707 89.2401 41.7649 88.6171 42.3282ZM90.9771 48.9745C90.354 48.8806 89.8065 48.6366 89.3345 48.2423H89.3156C88.8625 47.848 88.5227 47.2848 88.3339 46.5525C88.1451 45.8203 88.1451 45.182 88.3527 44.5999C88.5604 44.0367 88.9003 43.5486 89.41 43.1731C89.9198 42.7976 90.5051 42.5159 91.2036 42.3282C91.8833 42.1592 92.5441 42.1029 93.1671 42.1968C93.7901 42.2906 94.3377 42.5347 94.8097 42.929C95.2628 43.3233 95.6026 43.8865 95.7914 44.6187C95.9802 45.3509 95.9802 45.9893 95.7725 46.5713C95.5648 47.1346 95.2061 47.6227 94.7153 47.9982C94.2055 48.3925 93.6202 48.6741 92.9405 48.8431C92.2609 49.0121 91.6001 49.0684 90.9771 48.9745ZM88.6543 58.2493L88.5599 52.1475L97.9999 51.9973V53.1801L89.6361 53.3115L89.7116 58.2305H88.6543V58.2493ZM88.4655 59.0379L87.2571 65.0271L88.2955 65.2336L89.2773 60.4085L97.5089 62.0607L97.7355 60.8966L88.4655 59.0379ZM84.7462 71.373L84.7398 71.4048L82.4995 74.2268C80.064 77.2871 81.159 81.0796 83.2925 82.7506C84.8595 83.971 87.0118 84.0648 88.7299 81.9057L90.8822 79.1833L89.9004 79.5213L84.4819 72.6872L84.7398 71.4048L84.7651 71.373H84.7462ZM82.6694 74.377L83.6607 73.1123L89.5039 80.4976L88.5788 81.6804C87.2572 83.3514 85.3881 83.1449 83.9533 82.0184C81.8954 80.4225 80.6493 76.9304 82.6694 74.377ZM79.1578 90.7674C81.6688 88.9838 82.1597 84.9284 80.385 82.4502C79.0823 80.6478 76.8167 80.1972 75.1553 81.38C72.7009 83.1073 72.361 87.2002 74.1169 89.6409C75.4007 91.4246 77.553 91.9127 79.1578 90.7674ZM75.0986 89.3218C73.4938 87.1063 72.9652 83.2762 75.2685 81.6428L75.2874 81.6241C76.76 80.5727 78.3459 81.2486 79.4032 82.7318C81.0269 85.0223 81.48 88.7961 79.0634 90.5046C77.6474 91.4996 76.1559 90.805 75.0986 89.3218ZM69.2271 84.9284L72.1157 93.8841L73.4939 94.0343L69.9823 95.1608L71.2661 94.1657L68.9628 87.0124H68.8872L67.1125 93.5837L67.6601 95.2922L69.0383 95.4424L65.5078 96.5689L66.7916 95.5738L64.4882 88.4206H64.4316L62.1849 97.0382L63.6198 97.1697L60.8444 98.0521L61.8451 97.1321L64.7526 86.3553L66.9426 93.1518L69.2082 84.9284H69.2271ZM59.4286 88.6271L60.769 88.0638H60.7502L58.0692 88.0263L59.1076 88.6083L57.1441 96.2121H57.0308L52.1032 87.632L49.6866 96.9631L48.3461 97.5264L51.0081 97.5639L49.9886 96.9819L51.9144 89.472H52.0843L56.8798 97.7892L58.0126 97.6578L57.3329 96.7191L59.4286 88.6271ZM37.7167 83.1073C38.0566 83.6705 38.2265 84.2713 38.2265 84.8721C38.2265 85.4917 38.0377 86.0925 37.679 86.6745L36.6595 85.9611C37.4335 84.6281 37.0937 83.4453 35.6777 82.4502C35.0358 81.9996 34.4883 81.7931 34.0352 81.8494C33.582 81.9057 33.2044 82.1498 32.9024 82.5816C32.6758 82.9008 32.5625 83.2199 32.5814 83.5016C32.6003 83.7832 32.6947 84.0648 32.8835 84.3464C33.0723 84.6281 33.3932 85.0223 33.8464 85.548L33.8464 85.5481C33.8842 85.5856 33.9597 85.6607 34.0352 85.7546C34.4694 86.2615 34.8092 86.6933 35.0547 87.0688C35.3001 87.4443 35.4511 87.8574 35.4889 88.3079C35.5267 88.7585 35.3945 89.2091 35.0547 89.6597C34.6204 90.2793 34.0352 90.6173 33.3177 90.6548C32.6003 90.6924 31.8262 90.4295 31.0144 89.8475C30.1459 89.2279 29.5984 88.5332 29.3907 87.7447C29.183 86.9562 29.3152 86.1676 29.8061 85.3415L30.8256 86.055C30.5235 86.637 30.4291 87.1627 30.5424 87.632C30.6557 88.1014 31.0144 88.552 31.6185 88.9838C32.1472 89.3593 32.6192 89.5471 33.0345 89.5471C33.431 89.5471 33.7708 89.3593 34.0352 88.9838C34.2428 88.6834 34.3372 88.383 34.2806 88.1014C34.224 87.801 34.1107 87.5382 33.9408 87.2753C33.7657 87.0317 33.5096 86.7235 33.1874 86.3358L33.1873 86.3357L33.1872 86.3355L33.1871 86.3354L33.1868 86.335L33.11 86.2427C32.5625 85.6419 32.1661 85.1162 31.8829 84.7032C31.5997 84.2901 31.4486 83.8395 31.4109 83.3701C31.3731 82.9008 31.543 82.3939 31.9017 81.8869C32.3737 81.211 32.9968 80.8355 33.7708 80.7417C34.526 80.6478 35.3756 80.9106 36.2819 81.5678C36.9238 82.0184 37.4147 82.5253 37.7545 83.1073H37.7167ZM31.0707 80.5727C31.3917 79.8217 31.5049 79.0519 31.3917 78.2821C31.2784 77.5124 30.9385 76.7989 30.391 76.1606C29.9002 75.5973 29.3526 75.1843 28.7485 74.9402C28.1443 74.7149 27.5213 74.621 26.8794 74.7149C26.2375 74.8088 25.6333 75.0528 25.0669 75.4471L25.8787 76.3859C26.4451 75.9728 27.0493 75.7663 27.729 75.7851C28.4086 75.8038 29.0317 76.1418 29.617 76.8365C30.0889 77.3809 30.3344 77.9442 30.3533 78.5262C30.3721 79.1082 30.24 79.6715 29.9379 80.2159C29.6358 80.7604 29.2205 81.2673 28.7107 81.6992C28.1821 82.1498 27.6346 82.4689 27.0493 82.6755C26.464 82.882 25.8976 82.9195 25.3123 82.8069C24.7271 82.6755 24.2173 82.3563 23.7453 81.8118C23.1789 81.1359 22.9146 80.4976 22.9901 79.878C23.0468 79.2584 23.2733 78.714 23.6509 78.2446L22.8391 77.3058C22.4426 77.7564 22.1405 78.2821 21.9895 78.8642C21.8384 79.4462 21.8384 80.047 21.9895 80.6853C22.1405 81.3237 22.4615 81.9245 22.9524 82.4877C23.4999 83.1261 24.1418 83.5766 24.897 83.8019C25.6333 84.0272 26.4074 84.046 27.2192 83.8395C28.031 83.633 28.7862 83.2199 29.5037 82.6191C30.2211 82.0183 30.7497 81.3424 31.0707 80.5727ZM27.2763 72.4431L18.7804 76.5548L17.1189 73.1566C16.6658 72.2366 16.5337 71.4293 16.7225 70.7534C16.9113 70.0775 17.4021 69.533 18.1951 69.1575C18.7237 68.9135 19.2335 68.8384 19.7621 68.9322C20.2719 69.0449 20.7061 69.289 21.0271 69.6832H21.046C20.9327 69.2326 20.9704 68.8384 21.197 68.5004C21.4236 68.1625 21.669 67.8433 22.0088 67.5992C22.3487 67.3551 22.764 67.0923 23.2549 66.8107C23.5759 66.6229 23.7835 66.4915 23.9157 66.3976C24.0479 66.3038 24.1045 66.2287 24.1045 66.1536L24.18 66.116L24.7464 67.2613C24.7464 67.2613 24.652 67.4115 24.5199 67.4866L24.4632 67.519C24.3357 67.5921 24.1658 67.6895 23.9535 67.787C23.4626 68.0498 23.0472 68.2939 22.7263 68.5192C22.4053 68.7445 22.1788 69.0449 22.0277 69.3828C21.8767 69.7396 21.9144 70.1526 22.141 70.6032L23.3304 73.0252L26.7666 71.3542L27.2952 72.4244L27.2763 72.4431ZM21.348 71.4293C21.0271 70.791 20.6495 70.3591 20.1964 70.1526C19.7432 69.9461 19.2524 69.9649 18.7237 70.2277C18.214 70.4718 17.9119 70.8097 17.8175 71.2416C17.7231 71.6734 17.8175 72.2366 18.1762 72.9313L19.2146 75.0529L22.3675 73.5133L21.348 71.4293ZM21.6694 65.6091C22.3302 65.1021 22.8022 64.4638 23.0854 63.694H23.1043C23.3875 62.9242 23.4441 62.0981 23.2742 61.2157C23.1043 60.3333 22.7456 59.5823 22.1981 58.9815C21.6506 58.3619 20.9709 57.9489 20.1779 57.7048C19.385 57.4795 18.5165 57.442 17.5914 57.6109C16.6663 57.7799 15.8733 58.1366 15.2125 58.6436C14.5517 59.1505 14.0797 59.7888 13.7965 60.5586C13.5133 61.3284 13.4567 62.1545 13.6266 63.0369C13.7965 63.9193 14.1364 64.6703 14.6839 65.2711C15.2314 65.8907 15.9111 66.3037 16.704 66.5478C17.497 66.7731 18.3655 66.8106 19.2906 66.6417C20.2157 66.4727 21.0086 66.1348 21.6694 65.6091ZM19.7815 58.8125C20.4045 58.944 20.9331 59.2256 21.3674 59.6574H21.3485C21.7827 60.0892 22.0659 60.69 22.217 61.4223C22.3491 62.1732 22.3114 62.8116 22.047 63.3748C21.7827 63.9381 21.4051 64.3887 20.8765 64.7266C20.3667 65.0646 19.7437 65.3087 19.0451 65.4401C18.3466 65.5715 17.7047 65.5715 17.0816 65.4401C16.4586 65.3087 15.93 65.027 15.4957 64.5952C15.0615 64.1634 14.7594 63.5814 14.6273 62.8304C14.4951 62.0794 14.5329 61.441 14.7972 60.8778C15.0615 60.3145 15.4391 59.8639 15.9677 59.526C16.4964 59.188 17.1005 58.944 17.7991 58.8125C18.4976 58.6811 19.1584 58.6811 19.7815 58.8125ZM22.7824 49.688L22.4048 55.7898L12.9648 55.2266L13.0404 54.0438L21.423 54.5507L21.7251 49.6316L22.7824 49.688ZM22.9719 48.9557L24.6145 43.0604H24.6334L23.6138 42.7788L22.2923 47.5289L14.1928 45.3134L13.8718 46.4587L22.9719 48.9557ZM27.5973 36.8835L27.6047 36.8567L30.0705 34.1799C32.7137 31.2886 31.883 27.4397 29.8818 25.6186C28.4091 24.2855 26.2568 24.0227 24.3877 26.0692L22.0466 28.6413L23.0472 28.3785L27.956 35.588L27.6047 36.8567L27.5973 36.8647V36.8835ZM28.7867 35.2313L29.8818 34.0297C32.0907 31.6265 31.0712 28.0593 29.1454 26.3132C27.7861 25.0741 25.9547 24.7549 24.501 26.3132L23.4815 27.421L28.7867 35.2125V35.2313ZM52.7328 21.886L52.6891 21.9011V21.8824L52.7328 21.886ZM54.0484 21.4318L52.7328 21.886L55.37 22.1077L54.3694 21.4505L56.8615 14.0157H56.9748L61.2983 22.915L64.3568 13.7904L65.7162 13.321L63.073 13.0957L64.0359 13.7528L61.5815 21.0938H61.4116L57.2202 12.4761L56.0874 12.5325L56.7105 13.5275L54.0484 21.4318Z" fill="#679ECB"/>
</g>
</svg>
