<svg width="53" height="61" viewBox="0 0 53 61" fill="none" xmlns="http://www.w3.org/2000/svg">
<path d="M2 34C0.895434 34 -0.00784459 34.8967 0.0754416 35.9981C0.286852 38.794 0.940988 41.5429 2.0172 44.1411C3.34895 47.3562 5.30092 50.2776 7.76167 52.7383C10.2224 55.1991 13.1438 57.1511 16.3589 58.4828C19.574 59.8146 23.02 60.5 26.5 60.5C29.98 60.5 33.426 59.8146 36.6411 58.4828C39.8562 57.1511 42.7776 55.1991 45.2383 52.7383C47.6991 50.2776 49.6511 47.3562 50.9828 44.1411C52.059 41.5429 52.7132 38.794 52.9246 35.9981C53.0079 34.8967 52.1046 34 51 34L26.5 34L2 34Z" fill="#FFE34E"/>
<path d="M6 15.7C4.89543 15.7 3.99078 16.5972 4.08883 17.6974C4.29115 19.9675 4.83758 22.1976 5.71271 24.3104C6.84344 27.0402 8.50078 29.5206 10.5901 31.6099C12.6794 33.6992 15.1598 35.3566 17.8896 36.4873C20.6194 37.618 23.5453 38.2 26.5 38.2C29.4547 38.2 32.3806 37.618 35.1104 36.4873C37.8402 35.3566 40.3206 33.6992 42.4099 31.6099C44.4992 29.5206 46.1566 27.0402 47.2873 24.3104C48.1624 22.1976 48.7088 19.9675 48.9112 17.6974C49.0092 16.5972 48.1046 15.7 47 15.7L26.5 15.7L6 15.7Z" fill="white"/>
<path d="M10 0.499997C8.89543 0.499997 7.98882 1.398 8.10801 2.49612C8.29732 4.24043 8.7342 5.95238 9.40823 7.57964C10.3379 9.82416 11.7006 11.8636 13.4185 13.5815C15.1364 15.2994 17.1758 16.6621 19.4204 17.5918C21.6649 18.5215 24.0705 19 26.5 19C28.9295 19 31.3351 18.5215 33.5796 17.5918C35.8242 16.6621 37.8636 15.2994 39.5815 13.5815C41.2994 11.8636 42.6621 9.82417 43.5918 7.57964C44.2658 5.95239 44.7027 4.24043 44.892 2.49612C45.0112 1.398 44.1046 0.499998 43 0.499998L26.5 0.499998L10 0.499997Z" fill="#FFE34E"/>
</svg>
