<svg width="60" height="60" viewBox="0 0 60 60" fill="none" xmlns="http://www.w3.org/2000/svg">
    <path fill="#FFE34E" d="M2 0h24.2353s2 0 2 2v24.2353s0 2 -2 2h-24.2353s-2 0 -2 -2v-24.2353s0 -2 2 -2" />
    <path fill="#FFE34E" d="M2 31.7646h24.2353s2 0 2 2v24.2353s0 2 -2 2h-24.2353s-2 0 -2 -2v-24.2353s0 -2 2 -2" />
    <path fill="#FFE34E" d="M33.7647 0h24.2353s2 0 2 2v24.2353s0 2 -2 2h-24.2353s-2 0 -2 -2v-24.2353s0 -2 2 -2" />
    <path fill="#FFE34E" d="M33.7647 31.7646h24.2353s2 0 2 2v24.2353s0 2 -2 2h-24.2353s-2 0 -2 -2v-24.2353s0 -2 2 -2" />
</svg>