<svg width="69" height="69" viewBox="0 0 69 69" fill="none" xmlns="http://www.w3.org/2000/svg">
    <path transform="rotate(135 68.5894 34.3535)" fill="white" d="M70.5894 34.3535h44s2 0 2 2v44s0 2 -2 2h-44s-2 0 -2 -2v-44s0 -2 2 -2" />
    <path d="M62.2053 17.7046C61.0894 13.943 58.2369 10.9985 54.5748 9.82829C53.6479 9.53137 52.6867 9.35814 51.7104 9.30788L53.7644 11.1364C53.8569 11.2187 53.9042 11.3344 53.9042 11.4507C53.9042 11.5475 53.8715 11.6447 53.8046 11.7234C53.6574 11.8969 53.4008 11.9154 53.2314 11.7646L50 8.88812L53.1449 6.10138C53.3145 5.95104 53.5711 5.97009 53.7179 6.14402C53.8647 6.31794 53.8462 6.5807 53.6763 6.73114L51.7092 8.47417C52.7684 8.5251 53.8115 8.71156 54.8168 9.03366C58.7357 10.2863 61.7883 13.4372 62.9824 17.4626C62.9943 17.5029 63 17.5438 63 17.5839C63 17.7623 62.8871 17.9273 62.7118 17.982C62.4971 18.0487 62.2703 17.9246 62.205 17.7047L62.2053 17.7046Z" fill="white" />
    <path d="M7.7947 50.2954C8.91062 54.057 11.7631 57.0015 15.4252 58.1717C16.3521 58.4686 17.3133 58.6419 18.2896 58.6921L16.2356 56.8636C16.1431 56.7813 16.0958 56.6656 16.0958 56.5493C16.0958 56.4525 16.1285 56.3553 16.1954 56.2766C16.3426 56.1031 16.5992 56.0846 16.7686 56.2354L20 59.1119L16.8551 61.8986C16.6855 62.049 16.4289 62.0299 16.2821 61.856C16.1353 61.6821 16.1538 61.4193 16.3237 61.2689L18.2908 59.5258C17.2316 59.4749 16.1885 59.2884 15.1832 58.9663C11.2643 57.7137 8.21169 54.5628 7.01763 50.5374C7.00568 50.4971 7 50.4562 7 50.4161C7 50.2377 7.11292 50.0727 7.28819 50.018C7.50286 49.9513 7.72966 50.0754 7.79499 50.2953L7.7947 50.2954Z" fill="white" />
</svg>